<svg width="91" height="37" viewBox="0 0 91 37" fill="none" xmlns="http://www.w3.org/2000/svg">
<g clip-path="url(#clip0_59_110)">
<g filter="url(#filter0_diiii_59_110)">
<mask id="mask0_59_110" style="mask-type:luminance" maskUnits="userSpaceOnUse" x="2" y="2" width="33" height="33">
<path d="M26.5696 2.64307H10.628C6.22588 2.64307 2.65723 6.19281 2.65723 10.5716V26.4288C2.65723 30.8076 6.22588 34.3574 10.628 34.3574H26.5696C30.9718 34.3574 34.5404 30.8076 34.5404 26.4288V10.5716C34.5404 6.19281 30.9718 2.64307 26.5696 2.64307Z" fill="white"/>
</mask>
<g mask="url(#mask0_59_110)">
<path d="M26.5696 2.64307H10.628C6.22588 2.64307 2.65723 6.19281 2.65723 10.5716V26.4288C2.65723 30.8076 6.22588 34.3574 10.628 34.3574H26.5696C30.9718 34.3574 34.5404 30.8076 34.5404 26.4288V10.5716C34.5404 6.19281 30.9718 2.64307 26.5696 2.64307Z" fill="#0C111D"/>
<path d="M34.5404 2.64307H2.65723V34.3574H34.5404V2.64307Z" fill="url(#paint0_linear_59_110)"/>
<g filter="url(#filter1_d_59_110)">
<path d="M12.0502 14.7077C11.6344 15.7064 11.3861 16.7646 11.3139 17.8402C11.2895 18.2043 11.5892 18.5004 11.956 18.5004H15.6093C15.9762 18.5004 16.2689 18.2033 16.3178 17.8417C16.375 17.4174 16.4873 17.0013 16.6527 16.6041C16.9031 16.0029 17.2701 15.4566 17.7327 14.9965C18.1952 14.5364 18.7444 14.1713 19.3489 13.9223C19.7482 13.7578 20.1665 13.646 20.593 13.5891C20.9566 13.5405 21.2553 13.2493 21.2553 12.8844V9.25044C21.2553 8.88554 20.9576 8.58743 20.5915 8.61174C19.5102 8.68356 18.4464 8.9305 17.4424 9.34413C16.2335 9.84224 15.1352 10.5722 14.21 11.4925C13.2848 12.4128 12.551 13.5053 12.0502 14.7077Z" fill="url(#paint1_linear_59_110)"/>
<path d="M25.1465 22.2932C25.5623 21.2945 25.8106 20.2363 25.8828 19.1607C25.9072 18.7966 25.6075 18.5005 25.2407 18.5005H21.5874C21.2205 18.5005 20.9277 18.7976 20.8789 19.1592C20.8217 19.5835 20.7093 19.9996 20.5439 20.3968C20.2936 20.9981 19.9266 21.5443 19.464 22.0045C19.0015 22.4646 18.4523 22.8296 17.8478 23.0786C17.4485 23.2432 17.0302 23.355 16.6036 23.4118C16.2401 23.4604 15.9414 23.7516 15.9414 24.1166V27.7505C15.9414 28.1154 16.2391 28.4135 16.6052 28.3892C17.6865 28.3174 18.7503 28.0704 19.7543 27.6568C20.9631 27.1587 22.0615 26.4287 22.9867 25.5084C23.9119 24.5881 24.6457 23.4956 25.1465 22.2932Z" fill="url(#paint2_linear_59_110)"/>
</g>
</g>
<path d="M26.5695 3.30371H10.6279C6.59255 3.30371 3.32129 6.55764 3.32129 10.5716V26.4287C3.32129 30.4426 6.59255 33.6966 10.6279 33.6966H26.5695C30.6048 33.6966 33.876 30.4426 33.876 26.4287V10.5716C33.876 6.55764 30.6048 3.30371 26.5695 3.30371Z" stroke="url(#paint3_linear_59_110)" stroke-width="2"/>
</g>
<path d="M84.2275 25.9321C83.0876 25.9321 82.0687 25.69 81.1713 25.2057C80.2733 24.7215 79.5612 24.0653 79.0338 23.237C78.521 22.4087 78.2646 21.4913 78.2646 20.4846C78.2646 19.4652 78.5283 18.5477 79.0551 17.7322C79.5825 16.9039 80.2945 16.2477 81.1926 15.7635C82.09 15.2792 83.095 15.0371 84.2062 15.0371C85.0611 15.0371 85.8163 15.1837 86.4713 15.4767C87.0824 15.7325 87.5752 16.0891 87.9485 16.5463C88.0116 16.6236 88.007 16.7344 87.9425 16.8103C87.8117 16.9624 87.5613 16.8707 87.5613 16.6708V11.8941C87.5613 11.5293 87.8588 11.2334 88.2255 11.2334H90.1033C90.4699 11.2334 90.7675 11.5293 90.7675 11.8941V25.042C90.7675 25.4069 90.4699 25.7027 90.1033 25.7027H88.1438C87.9399 25.7027 87.7751 25.5387 87.7751 25.3365V24.368C87.7751 24.2239 87.9704 24.1778 88.0355 24.3067C88.0594 24.3538 88.0541 24.4106 88.0203 24.4513C87.627 24.928 87.1036 25.2941 86.45 25.5498C85.7665 25.8047 85.0252 25.9321 84.2275 25.9321ZM84.6121 23.3517C85.1966 23.3517 85.7094 23.2306 86.1511 22.9885C86.5928 22.7464 86.9349 22.4087 87.1767 21.9755C87.4331 21.5423 87.5613 21.0453 87.5613 20.4846C87.5613 19.9239 87.4331 19.427 87.1767 18.9937C86.9349 18.5605 86.5928 18.2228 86.1511 17.9807C85.7094 17.7385 85.1966 17.6175 84.6121 17.6175C84.0282 17.6175 83.5008 17.7449 83.0305 17.9998C82.5749 18.2419 82.2182 18.5795 81.9618 19.0128C81.7054 19.4333 81.5772 19.9239 81.5772 20.4846C81.5772 21.0453 81.7054 21.5423 81.9618 21.9755C82.2182 22.4087 82.5749 22.7464 83.0305 22.9885C83.5008 23.2306 84.0282 23.3517 84.6121 23.3517Z" fill="url(#paint4_linear_59_110)"/>
<path d="M72.2002 25.9321C73.6091 25.9321 74.8319 25.6988 75.8681 25.2322C76.905 24.7533 77.7061 24.1148 78.2733 23.3166C78.8399 22.5184 79.1235 21.6343 79.1235 20.6642C79.1235 19.6572 78.8319 18.7609 78.2487 17.975C77.6496 17.1891 76.8479 16.5689 75.8442 16.1146C74.8399 15.6603 73.7067 15.4331 72.4433 15.4331C71.3905 15.4331 70.4593 15.562 69.6496 15.8199C68.8399 16.0655 68.1604 16.4155 67.6097 16.8698C67.0427 17.3241 66.6135 17.8522 66.322 18.4539C66.0306 19.0433 65.8848 19.688 65.8848 20.3879C65.8848 20.5844 65.901 20.7809 65.9334 20.9774C65.9357 21.0042 65.9386 21.0307 65.942 21.0566C65.9752 21.3091 66.2179 21.4562 66.4739 21.4562H75.3254C75.6921 21.4562 75.9897 21.1604 75.9897 20.7955V20.0908C75.9897 19.7259 75.6921 19.4301 75.3254 19.4301H69.3194C68.9973 19.4301 68.8864 19.8558 69.1673 20.0119C69.4124 20.1482 69.722 19.9079 69.7293 19.6283C69.7346 19.4002 69.7811 19.1867 69.8688 18.988C70.0468 18.5705 70.3623 18.2451 70.816 18.0118C71.253 17.7662 71.7957 17.6435 72.4433 17.6435C73.075 17.6435 73.6177 17.7601 74.0707 17.9934C74.5244 18.2267 74.8645 18.5705 75.091 19.0249C75.3102 19.4647 75.4012 19.9966 75.3626 20.6206C75.36 20.6619 75.3607 20.7034 75.3646 20.7445C75.4164 21.2839 75.3248 21.7606 75.091 22.1746C74.8479 22.6044 74.4759 22.9421 73.9737 23.1876C73.4716 23.4209 72.8645 23.5376 72.1517 23.5376C71.5041 23.5376 70.9535 23.4394 70.4998 23.2429C70.2069 23.1202 69.9545 22.9687 69.7432 22.7884C69.5214 22.5991 69.2191 22.5001 68.9442 22.5991L67.2079 23.2246C66.8292 23.3609 66.6587 23.803 66.9283 24.1004C67.1481 24.3432 67.4158 24.567 67.7306 24.7717C68.2813 25.1401 68.9375 25.4287 69.6987 25.6374C70.4593 25.8339 71.2936 25.9321 72.2002 25.9321Z" fill="url(#paint5_linear_59_110)"/>
<path d="M49.2235 25.9328C48.193 25.9328 47.2214 25.7735 46.3087 25.4549C45.4107 25.1235 44.6305 24.6584 43.968 24.0594C43.4853 23.6129 43.0924 23.1062 42.7895 22.5394C42.6169 22.2163 42.7891 21.8292 43.1317 21.6961L44.7625 21.0624C45.0772 20.9401 45.4299 21.0757 45.6206 21.3531C45.9933 21.8952 46.4582 22.3385 47.0153 22.683C47.7514 23.129 48.5611 23.3521 49.4443 23.3521C49.9154 23.3521 50.3202 23.2883 50.6588 23.1609C50.9974 23.0334 51.2624 22.8614 51.4537 22.6447C51.6451 22.4153 51.7408 22.1477 51.7408 21.8418C51.7408 21.5105 51.623 21.2301 51.3875 21.0007C51.152 20.7585 50.7839 20.5674 50.2834 20.4272L47.0595 19.5096C45.7493 19.14 44.763 18.6174 44.1005 17.9419C43.438 17.2537 43.1068 16.4318 43.1068 15.4759C43.1068 14.6347 43.3424 13.8955 43.8135 13.2583C44.2993 12.6211 44.9691 12.124 45.8229 11.7672C46.6914 11.4103 47.6851 11.2319 48.8039 11.2319C49.7902 11.2319 50.703 11.3785 51.5421 11.6716C52.3812 11.9647 53.1025 12.3789 53.7061 12.9142C54.1525 13.3007 54.5184 13.7437 54.8037 14.2431C54.9865 14.5634 54.8156 14.9553 54.471 15.0903L52.8974 15.7066C52.5702 15.8347 52.2052 15.6821 52.0062 15.3939C51.7231 14.9843 51.3623 14.6484 50.9238 14.3862C50.3055 14.0039 49.5989 13.8127 48.8039 13.8127C48.3476 13.8127 47.9427 13.8764 47.5894 14.0039C47.2361 14.1313 46.9638 14.3161 46.7724 14.5583C46.5811 14.7877 46.4853 15.0553 46.4853 15.3612C46.4853 15.6925 46.6105 15.9856 46.8608 16.2405C47.111 16.4827 47.4864 16.6739 47.9869 16.814L51.1446 17.6935C52.4695 18.0631 53.4558 18.5792 54.1036 19.2419C54.766 19.9046 55.0973 20.7139 55.0973 21.6698C55.0973 22.4982 54.847 23.2374 54.3465 23.8873C53.846 24.5246 53.154 25.028 52.2707 25.3976C51.4023 25.7544 50.3864 25.9328 49.2235 25.9328Z" fill="url(#paint6_linear_59_110)"/>
<path d="M60.7776 25.9321C59.447 25.9321 58.2923 25.6988 57.3134 25.2322C56.3346 24.7533 55.5775 24.1148 55.0422 23.3166C54.5069 22.5184 54.2393 21.6343 54.2393 20.6642C54.2393 19.6572 54.5146 18.7609 55.0652 17.975C55.631 17.1891 56.3881 16.5689 57.3364 16.1146C58.2846 15.6603 59.3552 15.4331 60.5481 15.4331C61.5423 15.4331 62.4217 15.562 63.1864 15.8199C63.9511 16.0655 64.5935 16.4155 65.1135 16.8698C65.6488 17.3241 66.054 17.8522 66.3294 18.4539C66.6047 19.0433 66.7423 19.688 66.7423 20.3879C66.7423 20.5844 66.727 20.7809 66.6964 20.9774C66.6946 21.0002 66.6923 21.0226 66.6897 21.0447C66.6593 21.3028 66.4137 21.4562 66.1524 21.4562H57.8629C57.4961 21.4562 57.1987 21.1604 57.1987 20.7955V20.0908C57.1987 19.7259 57.4961 19.4301 57.8629 19.4301H63.511C63.8229 19.4301 63.9355 19.8395 63.6669 19.9975C63.4282 20.1379 63.1177 19.907 63.1116 19.6312C63.1066 19.4019 63.0627 19.1875 62.9799 18.988C62.8117 18.5705 62.5135 18.2451 62.0852 18.0118C61.6723 17.7662 61.1599 17.6435 60.5481 17.6435C59.9517 17.6435 59.4393 17.7601 59.0111 17.9934C58.5828 18.2267 58.2617 18.5705 58.0476 19.0249C57.8399 19.4655 57.7545 19.9986 57.7914 20.624C57.7937 20.663 57.7929 20.7022 57.7893 20.7411C57.74 21.2819 57.8261 21.7597 58.0476 22.1746C58.2769 22.6044 58.6287 22.9421 59.1028 23.1876C59.577 23.4209 60.1505 23.5376 60.8235 23.5376C61.4352 23.5376 61.9552 23.4394 62.3835 23.2429C62.648 23.1257 62.8772 22.9823 63.071 22.8127C63.2989 22.6133 63.6142 22.5081 63.8976 22.6162L65.4874 23.2225C65.8529 23.3619 66.0204 23.7892 65.7682 24.0871C65.5583 24.335 65.3018 24.5632 64.9988 24.7717C64.4787 25.1401 63.8593 25.4287 63.1405 25.6374C62.4217 25.8339 61.634 25.9321 60.7776 25.9321Z" fill="url(#paint7_linear_59_110)"/>
</g>
<defs>
<filter id="filter0_diiii_59_110" x="-1.67871" y="-0.696289" width="40.5547" height="42.3931" filterUnits="userSpaceOnUse" color-interpolation-filters="sRGB">
<feFlood flood-opacity="0" result="BackgroundImageFix"/>
<feColorMatrix in="SourceAlpha" type="matrix" values="0 0 0 0 0 0 0 0 0 0 0 0 0 0 0 0 0 0 127 0" result="hardAlpha"/>
<feOffset dy="3"/>
<feGaussianBlur stdDeviation="2"/>
<feComposite in2="hardAlpha" operator="out"/>
<feColorMatrix type="matrix" values="0 0 0 0 0.164706 0 0 0 0 0.164706 0 0 0 0 0.164706 0 0 0 0.14 0"/>
<feBlend mode="normal" in2="BackgroundImageFix" result="effect1_dropShadow_59_110"/>
<feBlend mode="normal" in="SourceGraphic" in2="effect1_dropShadow_59_110" result="shape"/>
<feColorMatrix in="SourceAlpha" type="matrix" values="0 0 0 0 0 0 0 0 0 0 0 0 0 0 0 0 0 0 127 0" result="hardAlpha"/>
<feOffset dy="1"/>
<feGaussianBlur stdDeviation="0.5"/>
<feComposite in2="hardAlpha" operator="arithmetic" k2="-1" k3="1"/>
<feColorMatrix type="matrix" values="0 0 0 0 0.162923 0 0 0 0 0.162923 0 0 0 0 0.162923 0 0 0 0.08 0"/>
<feBlend mode="normal" in2="shape" result="effect2_innerShadow_59_110"/>
<feColorMatrix in="SourceAlpha" type="matrix" values="0 0 0 0 0 0 0 0 0 0 0 0 0 0 0 0 0 0 127 0" result="hardAlpha"/>
<feOffset dy="-3"/>
<feGaussianBlur stdDeviation="1.5"/>
<feComposite in2="hardAlpha" operator="arithmetic" k2="-1" k3="1"/>
<feColorMatrix type="matrix" values="0 0 0 0 0 0 0 0 0 0 0 0 0 0 0 0 0 0 0.1 0"/>
<feBlend mode="normal" in2="effect2_innerShadow_59_110" result="effect3_innerShadow_59_110"/>
<feColorMatrix in="SourceAlpha" type="matrix" values="0 0 0 0 0 0 0 0 0 0 0 0 0 0 0 0 0 0 127 0" result="hardAlpha"/>
<feOffset dy="3"/>
<feGaussianBlur stdDeviation="1.5"/>
<feComposite in2="hardAlpha" operator="arithmetic" k2="-1" k3="1"/>
<feColorMatrix type="matrix" values="0 0 0 0 1 0 0 0 0 1 0 0 0 0 1 0 0 0 0.1 0"/>
<feBlend mode="normal" in2="effect3_innerShadow_59_110" result="effect4_innerShadow_59_110"/>
<feColorMatrix in="SourceAlpha" type="matrix" values="0 0 0 0 0 0 0 0 0 0 0 0 0 0 0 0 0 0 127 0" result="hardAlpha"/>
<feOffset/>
<feGaussianBlur stdDeviation="2"/>
<feComposite in2="hardAlpha" operator="arithmetic" k2="-1" k3="1"/>
<feColorMatrix type="matrix" values="0 0 0 0 0.0627451 0 0 0 0 0.0941176 0 0 0 0 0.156863 0 0 0 0.24 0"/>
<feBlend mode="normal" in2="effect4_innerShadow_59_110" result="effect5_innerShadow_59_110"/>
</filter>
<filter id="filter1_d_59_110" x="6.8125" y="6.36035" width="23.5713" height="28.7803" filterUnits="userSpaceOnUse" color-interpolation-filters="sRGB">
<feFlood flood-opacity="0" result="BackgroundImageFix"/>
<feColorMatrix in="SourceAlpha" type="matrix" values="0 0 0 0 0 0 0 0 0 0 0 0 0 0 0 0 0 0 127 0" result="hardAlpha"/>
<feOffset dy="2.25"/>
<feGaussianBlur stdDeviation="2.25"/>
<feComposite in2="hardAlpha" operator="out"/>
<feColorMatrix type="matrix" values="0 0 0 0 0.141176 0 0 0 0 0.141176 0 0 0 0 0.141176 0 0 0 0.1 0"/>
<feBlend mode="normal" in2="BackgroundImageFix" result="effect1_dropShadow_59_110"/>
<feBlend mode="normal" in="SourceGraphic" in2="effect1_dropShadow_59_110" result="shape"/>
</filter>
<linearGradient id="paint0_linear_59_110" x1="18.5988" y1="2.64307" x2="19.9133" y2="34.3579" gradientUnits="userSpaceOnUse">
<stop stop-color="white" stop-opacity="0"/>
<stop offset="1" stop-color="white" stop-opacity="0.12"/>
</linearGradient>
<linearGradient id="paint1_linear_59_110" x1="11.2918" y1="13.5451" x2="21.2553" y2="13.5451" gradientUnits="userSpaceOnUse">
<stop stop-color="white" stop-opacity="0.8"/>
<stop offset="1" stop-color="white" stop-opacity="0.5"/>
</linearGradient>
<linearGradient id="paint2_linear_59_110" x1="25.9049" y1="23.4558" x2="15.9414" y2="23.4558" gradientUnits="userSpaceOnUse">
<stop stop-color="white" stop-opacity="0.8"/>
<stop offset="1" stop-color="white" stop-opacity="0.5"/>
</linearGradient>
<linearGradient id="paint3_linear_59_110" x1="18.5987" y1="2.643" x2="18.5987" y2="34.3573" gradientUnits="userSpaceOnUse">
<stop stop-color="white" stop-opacity="0.12"/>
<stop offset="1" stop-color="white" stop-opacity="0"/>
</linearGradient>
<linearGradient id="paint4_linear_59_110" x1="78.2646" y1="18.5828" x2="90.7675" y2="18.5828" gradientUnits="userSpaceOnUse">
<stop stop-color="#D0D1D3"/>
<stop offset="1" stop-color="#898C91"/>
</linearGradient>
<linearGradient id="paint5_linear_59_110" x1="79.1235" y1="20.6826" x2="65.8848" y2="20.6826" gradientUnits="userSpaceOnUse">
<stop stop-color="#D0D1D3"/>
<stop offset="1" stop-color="#898C91"/>
</linearGradient>
<linearGradient id="paint6_linear_59_110" x1="42.5106" y1="18.5824" x2="55.0973" y2="18.5824" gradientUnits="userSpaceOnUse">
<stop stop-color="#D0D1D3"/>
<stop offset="1" stop-color="#898C91"/>
</linearGradient>
<linearGradient id="paint7_linear_59_110" x1="54.2393" y1="20.6826" x2="66.7423" y2="20.6826" gradientUnits="userSpaceOnUse">
<stop stop-color="#D0D1D3"/>
<stop offset="1" stop-color="#898C91"/>
</linearGradient>
<clipPath id="clip0_59_110">
<rect width="91" height="37" fill="white"/>
</clipPath>
</defs>
</svg>
